<svg width="24" height="23" viewBox="0 0 24 23" fill="none" xmlns="http://www.w3.org/2000/svg">
<path fill-rule="evenodd" clip-rule="evenodd" d="M23.0127 11.7614C23.0127 10.9459 22.9395 10.1618 22.8036 9.40909H11.9727V13.8575H18.1617C17.8952 15.295 17.0849 16.513 15.867 17.3284V20.2139H19.5836C21.7581 18.2118 23.0127 15.2636 23.0127 11.7614Z" fill="#4285F4"/>
<path fill-rule="evenodd" clip-rule="evenodd" d="M11.9726 22.9998C15.0776 22.9998 17.6808 21.9701 19.5835 20.2137L15.8669 17.3283C14.8372 18.0183 13.5199 18.426 11.9726 18.426C8.97739 18.426 6.44216 16.403 5.53785 13.6848H1.6958V16.6644C3.58807 20.4228 7.47716 22.9998 11.9726 22.9998Z" fill="#34A853"/>
<path fill-rule="evenodd" clip-rule="evenodd" d="M5.53788 13.6851C5.30788 12.9951 5.1772 12.258 5.1772 11.5001C5.1772 10.7421 5.30788 10.0051 5.53788 9.31506V6.33551H1.69584C0.916974 7.88801 0.472656 9.64437 0.472656 11.5001C0.472656 13.3557 0.916974 15.1121 1.69584 16.6646L5.53788 13.6851Z" fill="#FBBC05"/>
<path fill-rule="evenodd" clip-rule="evenodd" d="M11.9726 4.57386C13.661 4.57386 15.1769 5.15409 16.3688 6.29364L19.6672 2.99523C17.6756 1.13955 15.0724 0 11.9726 0C7.47717 0 3.58807 2.57705 1.6958 6.33545L5.53785 9.315C6.44216 6.59682 8.97739 4.57386 11.9726 4.57386Z" fill="#EA4335"/>
</svg>
