<svg width="46" height="34" viewBox="0 0 46 34" fill="none" xmlns="http://www.w3.org/2000/svg">
<path d="M27.1667 12.6249V9.08325C28.3125 8.59714 29.4844 8.23256 30.6823 7.9895C31.8802 7.74645 33.1389 7.62492 34.4584 7.62492C35.3611 7.62492 36.2466 7.69436 37.1146 7.83325C37.9827 7.97214 38.8334 8.14575 39.6667 8.35408V11.6874C38.8334 11.3749 37.9914 11.1405 37.1407 10.9843C36.29 10.828 35.3959 10.7499 34.4584 10.7499C33.1389 10.7499 31.8716 10.9148 30.6563 11.2447C29.441 11.5746 28.2778 12.0346 27.1667 12.6249ZM27.1667 24.0833V20.5416C28.3125 20.0555 29.4844 19.6909 30.6823 19.4478C31.8802 19.2048 33.1389 19.0833 34.4584 19.0833C35.3611 19.0833 36.2466 19.1527 37.1146 19.2916C37.9827 19.4305 38.8334 19.6041 39.6667 19.8124V23.1458C38.8334 22.8333 37.9914 22.5989 37.1407 22.4426C36.29 22.2864 35.3959 22.2083 34.4584 22.2083C33.1389 22.2083 31.8716 22.3645 30.6563 22.677C29.441 22.9895 28.2778 23.4583 27.1667 24.0833ZM27.1667 18.3541V14.8124C28.3125 14.3263 29.4844 13.9617 30.6823 13.7187C31.8802 13.4756 33.1389 13.3541 34.4584 13.3541C35.3611 13.3541 36.2466 13.4235 37.1146 13.5624C37.9827 13.7013 38.8334 13.8749 39.6667 14.0833V17.4166C38.8334 17.1041 37.9914 16.8697 37.1407 16.7135C36.29 16.5572 35.3959 16.4791 34.4584 16.4791C33.1389 16.4791 31.8716 16.644 30.6563 16.9739C29.441 17.3037 28.2778 17.7638 27.1667 18.3541ZM11.5417 25.3333C13.1737 25.3333 14.7622 25.5155 16.3073 25.8801C17.8525 26.2447 19.3889 26.7916 20.9167 27.5208V6.99992C19.4931 6.16658 17.9827 5.54158 16.3855 5.12492C14.7882 4.70825 13.1737 4.49992 11.5417 4.49992C10.2917 4.49992 9.05039 4.62145 7.81775 4.8645C6.58511 5.10756 5.39587 5.47214 4.25004 5.95825V26.5833C5.46532 26.1666 6.67192 25.8541 7.86983 25.6458C9.06775 25.4374 10.2917 25.3333 11.5417 25.3333ZM25.0834 27.5208C26.6112 26.7916 28.1476 26.2447 29.6927 25.8801C31.2379 25.5155 32.8264 25.3333 34.4584 25.3333C35.7084 25.3333 36.9323 25.4374 38.1302 25.6458C39.3282 25.8541 40.5348 26.1666 41.75 26.5833V5.95825C40.6042 5.47214 39.415 5.10756 38.1823 4.8645C36.9497 4.62145 35.7084 4.49992 34.4584 4.49992C32.8264 4.49992 31.2118 4.70825 29.6146 5.12492C28.0174 5.54158 26.507 6.16658 25.0834 6.99992V27.5208ZM23 33.6666C21.3334 32.3471 19.5278 31.3228 17.5834 30.5937C15.6389 29.8645 13.625 29.4999 11.5417 29.4999C10.0834 29.4999 8.65108 29.6909 7.24483 30.0728C5.83858 30.4548 4.4931 30.993 3.20837 31.6874C2.47921 32.0694 1.77608 32.052 1.099 31.6353C0.421916 31.2187 0.083374 30.611 0.083374 29.8124V4.70825C0.083374 4.32631 0.17886 3.96172 0.369832 3.6145C0.560805 3.26728 0.847263 3.00686 1.22921 2.83325C2.82643 1.99992 4.4931 1.37492 6.22921 0.958252C7.96532 0.541585 9.73615 0.333252 11.5417 0.333252C13.5556 0.333252 15.5261 0.593669 17.4532 1.1145C19.3802 1.63534 21.2292 2.41659 23 3.45825C24.7709 2.41659 26.6198 1.63534 28.5469 1.1145C30.474 0.593669 32.4445 0.333252 34.4584 0.333252C36.2639 0.333252 38.0348 0.541585 39.7709 0.958252C41.507 1.37492 43.1737 1.99992 44.7709 2.83325C45.1528 3.00686 45.4393 3.26728 45.6302 3.6145C45.8212 3.96172 45.9167 4.32631 45.9167 4.70825V29.8124C45.9167 30.611 45.5782 31.2187 44.9011 31.6353C44.224 32.052 43.5209 32.0694 42.7917 31.6874C41.507 30.993 40.1615 30.4548 38.7552 30.0728C37.349 29.6909 35.9167 29.4999 34.4584 29.4999C32.375 29.4999 30.3612 29.8645 28.4167 30.5937C26.4723 31.3228 24.6667 32.3471 23 33.6666Z" fill="#0C356A"/>
</svg>
